<svg width="185" height="181" viewBox="0 0 185 181" fill="none" xmlns="http://www.w3.org/2000/svg">
<path d="M25.7833 162.907L10.9381 0H174.062L159.201 162.881L92.4003 181L25.7833 162.907Z" fill="#264DE4"/>
<path d="M146.478 152.509L159.178 13.3198H92.5V167.151L146.478 152.509Z" fill="#2965F1"/>
<path d="M44.9709 73.7398L46.8011 93.7195H92.5V73.7398H44.9709ZM43.1495 53.2801H92.5V33.3001H41.293L43.1495 53.2801ZM92.5 125.63L92.4104 125.653L69.667 119.645L68.2134 103.709H47.713L50.5744 135.081L92.4061 146.443L92.5 146.417V125.63Z" fill="#EBEBEB"/>
<path d="M92.4296 73.7398V93.7195H117.576L115.206 119.632L92.4296 125.646V146.433L134.294 135.081L134.602 131.705L139.4 79.1048L139.899 73.7398L143.585 33.3001H92.4296V53.2801H121.205L119.347 73.7398H92.4296Z" fill="white"/>
</svg>
