<svg width="184" height="832" viewBox="0 0 184 832" fill="none" xmlns="http://www.w3.org/2000/svg">
<path d="M14.9284 769.549L36.9377 831.586C37.4511 833.033 38.8201 834 40.3556 834L181.5 831.544C182.874 831.52 184 832.626 184 834V1.03813C184 0.464786 183.535 0 182.962 0H45.1094C43.417 0 41.769 0.541703 40.4066 1.54582L34.1739 6.1396C22.0646 15.0647 17.9614 31.3096 24.3801 44.9146L32.6454 62.4337C39.9972 78.0166 35.9659 96.5946 22.8165 107.729C9.17931 119.276 5.40927 138.754 13.7531 154.556L24.4911 174.892C35.6345 195.995 34.6501 221.445 21.9099 241.625L14.8258 252.845C0.484123 275.562 -2.12701 303.767 7.80079 328.73L27.7479 378.887C37.0847 402.364 35.3583 428.796 23.0472 450.859L11.1531 472.175C-0.984083 493.927 -2.84191 519.943 6.08134 543.198L31.2172 608.706C38.4942 627.671 38.6524 648.63 31.6625 667.703L15.2238 712.558C8.48693 730.94 8.38244 751.098 14.9284 769.549Z" fill="white"/>
</svg>
